<svg id="Layer_1" xmlns="http://www.w3.org/2000/svg" width="512" height="512" viewBox="156 -186 512 512"><g id="_x36_7ElKo.tif"><path d="M370 183.4c-8.6 8.7-12.5 18.7-14.9 29.6-.3 1.4-2.2 3-3.7 3.6-25.3 9.8-50.3 5.9-66.1-20-7.8-12.8-18.3-22.2-33.6-24.8-2.7-.5-5.7-.4-8.4.2-1.8.4-4.4 1.7-4.7 3.1-.3 1.5 1.4 3.6 2.6 5.2 1 1.3 2.5 2.4 3.9 3.3 13.5 8 21.8 20.2 27.7 34.3 9.3 22.1 27.3 31.1 49.8 32.3 10.1.6 20.3-.9 31.9-1.5V273c0 5.5.2 11 .2 16.5-.1 12.1-7.6 17.6-19.2 13.7-30.7-10.3-58.2-26.3-82.3-48-44.2-39.9-70.5-89.4-77.7-148.5-13.3-109.2 51.3-213 155.2-250.9C463.5-192.7 609-117.3 645.2 18.5 677 137.7 608.9 264.1 492 302.8c-12.4 4.1-19.9-1-19.9-13.9 0-17.8.2-35.6.5-53.4.3-18.9-1.3-37.2-16.1-52.6 6.8-1.2 12.7-1.9 18.5-3.2 8.5-2 17-3.8 25.2-6.7 35.3-12.2 55.4-37.5 62.2-73.7 3.2-16.6 4.1-33.4 1.5-50.2-2.5-16.1-9.3-30.3-19.8-42.7-2.1-2.5-3.1-4.6-2-8.1 5.8-18.2 4-36.2-1.9-54-1.6-4.9-5.1-5.6-8.9-4.6-9.8 2.5-19.8 4.8-29.2 8.7-8.9 3.6-16.9 9.3-25.4 13.7-2.1 1.1-5 1.7-7.3 1.2-37.3-9-74.5-9-111.8-.1-2.5.6-6-.2-8.2-1.6-13.9-8.5-28-16.9-44.1-20.2-19.1-4-17.1-3.4-21.5 13-3.9 14.9-3.6 29.9.9 44.8.5 1.7 0 4.6-1.2 6-20.8 23.9-24.8 52.1-20.7 82 1.7 12.2 4.6 24.7 9.2 36.1 12.2 30.2 36.9 46 67.3 53.8 8.4 2.2 17.1 3.2 25.6 4.8 1.3.5 2.7.9 5.1 1.5z"/><path d="M347.2 231.8c-2.2-2.3-3.6-3.6-5-5 1.8-1.5 3.5-3.8 5.5-4.3 1.3-.3 3.3 2 4.9 3.2-1.5 1.7-3 3.5-5.4 6.1zM292.3 209.4c2.5 3.4 4.3 5.5 5.5 7.8.2.4-3.1 3.2-3.3 3-2.2-1.6-4.2-3.6-5.7-5.8-.4-.3 1.6-2.3 3.5-5zM308.9 219.7c2.6 2.8 4.4 4.7 6.1 6.5-1.5 1.1-3.4 3.3-4.5 3-2.2-.6-3.9-2.7-5.9-4.1 1.2-1.4 2.3-2.8 4.3-5.4zM328.7 233.9c-2-2.4-3.4-4.1-4.7-5.7 1.8-1.2 3.7-3.4 5.5-3.4 1.7.1 3.3 2.5 5 3.9-1.7 1.5-3.3 3-5.8 5.2zM286.9 203.6c-2.3 1.5-4.4 3.2-4.6 3-1.8-1.7-3.3-3.8-4.9-5.8 1.1-.9 2.9-2.8 3.3-2.6 2 1.2 3.7 3 6.2 5.4zM270.7 183.9c2.2 2.8 3.7 4.5 4.7 6.4.2.5-1.6 1.9-2.4 2.9-1.6-1.5-3.4-2.9-4.6-4.7-.5-.4.9-2.1 2.3-4.6zM266.4 180.5c-1.8 1.3-3.1 2.8-3.6 2.5-1.6-.8-3-2.1-4.4-3.3.9-.7 2-2.2 2.7-2.1 1.5.5 3 1.6 5.3 2.9z"/></g></svg>