<?xml version="1.0" encoding="utf-8"?>
<!-- Generator: Adobe Illustrator 19.1.0, SVG Export Plug-In . SVG Version: 6.00 Build 0)  -->
<svg version="1.1" id="Layer_1" xmlns="http://www.w3.org/2000/svg" xmlns:xlink="http://www.w3.org/1999/xlink" x="0px" y="0px"
	 width="512px" height="512px" viewBox="156 -186 512 512" style="enable-background:new 156 -186 512 512;" xml:space="preserve">
<g id="_x36_7ElKo.tif">
	<g>
		<g>
			<path d="M370,183.4c-8.6,8.7-12.5,18.7-14.9,29.6c-0.3,1.4-2.2,3-3.7,3.6c-25.3,9.8-50.3,5.9-66.1-20
				c-7.8-12.8-18.3-22.2-33.6-24.8c-2.7-0.5-5.7-0.4-8.4,0.2c-1.8,0.4-4.4,1.7-4.7,3.1c-0.3,1.5,1.4,3.6,2.6,5.2
				c1,1.3,2.5,2.4,3.9,3.3c13.5,8,21.8,20.2,27.7,34.3c9.3,22.1,27.3,31.1,49.8,32.3c10.1,0.6,20.3-0.9,31.9-1.5
				c0,7.9,0,16.1,0,24.3c0,5.5,0.2,11,0.2,16.5c-0.1,12.1-7.6,17.6-19.2,13.7c-30.7-10.3-58.2-26.3-82.3-48
				c-44.2-39.9-70.5-89.4-77.7-148.5c-13.3-109.2,51.3-213,155.2-250.9C463.5-192.7,609-117.3,645.2,18.5
				c31.8,119.2-36.3,245.6-153.2,284.3c-12.4,4.1-19.9-1-19.9-13.9c0-17.8,0.2-35.6,0.5-53.4c0.3-18.9-1.3-37.2-16.1-52.6
				c6.8-1.2,12.7-1.9,18.5-3.2c8.5-2,17-3.8,25.2-6.7c35.3-12.2,55.4-37.5,62.2-73.7c3.2-16.6,4.1-33.4,1.5-50.2
				c-2.5-16.1-9.3-30.3-19.8-42.7c-2.1-2.5-3.1-4.6-2-8.1c5.8-18.2,4-36.2-1.9-54c-1.6-4.9-5.1-5.6-8.9-4.6
				c-9.8,2.5-19.8,4.8-29.2,8.7c-8.9,3.6-16.9,9.3-25.4,13.7c-2.1,1.1-5,1.7-7.3,1.2c-37.3-9-74.5-9-111.8-0.1
				c-2.5,0.6-6-0.2-8.2-1.6c-13.9-8.5-28-16.9-44.1-20.2c-19.1-4-17.1-3.4-21.5,13c-3.9,14.9-3.6,29.9,0.9,44.8c0.5,1.7,0,4.6-1.2,6
				c-20.8,23.9-24.8,52.1-20.7,82c1.7,12.2,4.6,24.7,9.2,36.1c12.2,30.2,36.9,46,67.3,53.8c8.4,2.2,17.1,3.2,25.6,4.8
				C366.2,182.4,367.6,182.8,370,183.4z"/>
			<path d="M347.2,231.8c-2.2-2.3-3.6-3.6-5-5c1.8-1.5,3.5-3.8,5.5-4.3c1.3-0.3,3.3,2,4.9,3.2C351.1,227.4,349.6,229.2,347.2,231.8z
				"/>
			<path d="M292.3,209.4c2.5,3.4,4.3,5.5,5.5,7.8c0.2,0.4-3.1,3.2-3.3,3c-2.2-1.6-4.2-3.6-5.7-5.8
				C288.4,214.1,290.4,212.1,292.3,209.4z"/>
			<path d="M308.9,219.7c2.6,2.8,4.4,4.7,6.1,6.5c-1.5,1.1-3.4,3.3-4.5,3c-2.2-0.6-3.9-2.7-5.9-4.1
				C305.8,223.7,306.9,222.3,308.9,219.7z"/>
			<path d="M328.7,233.9c-2-2.4-3.4-4.1-4.7-5.7c1.8-1.2,3.7-3.4,5.5-3.4c1.7,0.1,3.3,2.5,5,3.9
				C332.8,230.2,331.2,231.7,328.7,233.9z"/>
			<path d="M286.9,203.6c-2.3,1.5-4.4,3.2-4.6,3c-1.8-1.7-3.3-3.8-4.9-5.8c1.1-0.9,2.9-2.8,3.3-2.6
				C282.7,199.4,284.4,201.2,286.9,203.6z"/>
			<path d="M270.7,183.9c2.2,2.8,3.7,4.5,4.7,6.4c0.2,0.5-1.6,1.9-2.4,2.9c-1.6-1.5-3.4-2.9-4.6-4.7
				C267.9,188.1,269.3,186.4,270.7,183.9z"/>
			<path d="M266.4,180.5c-1.8,1.3-3.1,2.8-3.6,2.5c-1.6-0.8-3-2.1-4.4-3.3c0.9-0.7,2-2.2,2.7-2.1
				C262.6,178.1,264.1,179.2,266.4,180.5z"/>
		</g>
	</g>
</g>
</svg>
