<svg xmlns="http://www.w3.org/2000/svg" viewBox="0 0 252 252"><g id="cloud"><g id="XMLID_2_" fill="none" stroke="#000" stroke-miterlimit="10"><path id="XMLID_58_" stroke-width="2.5" stroke-linecap="round" stroke-linejoin="round" d="M90 163.1l-14.3 4.8 50.2 16.6 50.1-16.6-14.3-4.8"/><path id="XMLID_38_" stroke-width="2.5" stroke-linecap="round" stroke-linejoin="round" d="M91.6 153.1l-15.9 5.3 50.2 16.6 50.1-16.6-15.8-5.3"/><path id="XMLID_77_" stroke-width="4" stroke-linecap="round" stroke-linejoin="round" d="M160.6 85.5c-3.6 0-6.9.9-9.8 2.5-2.9-11.8-13.5-20.5-26.2-20.5-14.2 0-25.9 11-26.9 25-2.7-1.6-5.8-2.5-9.1-2.5-9.9 0-18 8.1-18 18s8.1 18 18 18h72c11.2 0 20.2-9.1 20.2-20.2s-9-20.3-20.2-20.3z"/><path id="XMLID_61_" stroke-width="3" stroke-linecap="round" stroke-linejoin="round" d="M147.7 138.4l-21.8-7.3-50.2 16.7 50.2 16.7 50.1-16.7-18.1-6"/><g id="XMLID_69_" stroke-width=".292" stroke-linecap="round" stroke-linejoin="round"><path id="XMLID_75_" d="M163.3 143.6l-49.9 16.7"/><path id="XMLID_74_" d="M138.3 135.2L88.5 152"/><path id="XMLID_59_" d="M148.9 140.1l-47.9 16"/><path id="XMLID_72_" d="M88.5 143.6l49.8 16.7"/><path id="XMLID_71_" d="M113.4 135.2l49.9 16.8"/><path id="XMLID_70_" d="M101 139.4l49.8 16.7"/></g><path id="XMLID_68_" stroke-width="1.75" d="M162.6 139c-4.5 0-8.2-3.7-8.2-8.2 0-.1-.1-.2-.2-.2s-.2.1-.2.2c0 4.5-3.7 8.2-8.2 8.2-.1 0-.2.1-.2.2s.1.2.2.2c4.5 0 8.2 3.7 8.2 8.2 0 .1.1.2.2.2s.2-.1.2-.2c0-4.5 3.7-8.2 8.2-8.2.1 0 .2-.1.2-.2s0-.2-.2-.2z"/><path id="XMLID_67_" stroke-width="4" stroke-linecap="round" stroke-linejoin="round" d="M143.1 96c3.5-6.2 10-10.3 17.6-10.3 11.1 0 20.2 9 20.2 20.2"/><path id="XMLID_47_" stroke-width="3.936" stroke-linecap="round" stroke-linejoin="round" d="M97.7 97.9c-.2-1.2-.2-2.4-.2-3.6 0-15 12.1-26.9 27.1-26.9"/></g></g></svg>