<svg xmlns="http://www.w3.org/2000/svg" viewBox="0 0 252 252"><g id="host"><g id="XMLID_4_" fill="none" stroke="#000" stroke-linecap="round" stroke-linejoin="round" stroke-miterlimit="10"><path id="XMLID_35_" stroke-width="4" d="M77 177.2c-5 0-9-4-9-9v-72c0-2.4 1.8-4.5 4.5-4.5h18c4.3 0 4.7 9 9 9h1.6"/><path id="XMLID_37_" stroke-width="2.5" d="M99 109.9l8.8-26.4h14.7l2.9-8.7h26.4l-2 5.9"/><path id="XMLID_36_" stroke-width="2.5" d="M116.6 109.7l6.7-20.2H138l2.9-8.8h26.3l-1.8 5.5"/><path id="XMLID_1_" stroke-width="2.5" d="M134.1 109.8l5-14.8h14.6l2.9-8.8H183l-5.9 17.6h5.9l-7 20.9"/><path id="XMLID_34_" stroke-width="4" d="M176 168.2v-54c0-2.5-2.5-4.5-4.5-4.5h-81c-2.3 0-4.5 1.8-4.5 4.5v54c0 5-4 9-9 9"/><path id="XMLID_33_" stroke-width="4" d="M176 168.2c0 5-4 9-9 9H77"/></g></g></svg>