<svg xmlns="http://www.w3.org/2000/svg" width="3029.4" height="2054.3" viewBox="0 0 3029.4 2054.3"><style>.st0{fill:none;stroke:#ccc;stroke-width:9;stroke-miterlimit:10}.st1{fill:#7f7f7f}.st2{font-family:&amp;apos;Helvetica&amp;apos;}.st3{font-size:72px}.st4{font-size:60px}.st5{fill:#fff}.st6{font-family:&amp;apos;Helvetica-Bold&amp;apos;}.st7{fill:none;stroke:#fff;stroke-width:20;stroke-miterlimit:10}.st8{font-family:&amp;apos;OpenSans&amp;apos;}</style><g id="Layer_1"><path class="st0" d="M583.9 186v1440h2020"/><text transform="translate(561.03 1742.563)" class="st1 st2 st3">0</text><text transform="translate(2383.03 1742.563)" class="st1 st2 st3">30</text><text transform="translate(1154.642 1742.563)" class="st1 st2 st3">10</text><text transform="translate(1768.836 1742.563)" class="st1 st2 st3">20</text><text transform="translate(661.416 141.002)" class="st2 st4">Landscape 7-8</text><text transform="translate(656.472 607.006)" class="st2 st4">Sentinel 2</text><text transform="translate(701.825 1085.002)" class="st2 st4">RapidEye</text><text transform="rotate(-45.001 2221.301 -462.92)" class="st2 st4">SPOT 6/7</text><text transform="rotate(-45.001 2590.086 -1004.21)" class="st2 st4">Pleiades</text><text transform="rotate(-45.001 2736.903 -1364.4)" class="st2 st4">DG WV2</text><text transform="rotate(-45.001 3199.333 -2473.948)" class="st2 st4">DG WV3</text></g><g id="Layer_2"><path class="st5" d="M560.5 195.1l1.2 12.3 8.8 8.8 12.9 1.2 17.6-16.5 11.8 14.7 49.4 17.7 11.7-32.4-59.9-18.8 2.3-11.1-7.6-8.9-11.8-4.7-12.9 7.7-6.5 10-14.1-14.1-47-17.7-11.8 31.8z"/><path d="M601.1 207.9c-2 2.3-4 4.1-5.3 6.2-9.5 15.4-33.6 8.2-37.4-5-1-3.7-1-7.7-1.5-11.2-18.9-3-36.1-12.2-54.4-18.1-2.6-.8-3.7-2.8-2.5-5.9 3.9-10.1 7.6-20.3 11.2-30.5 1.3-3.6 3-4.4 6.6-3.1 15.2 5.7 30.7 10.9 45.7 16.9 3.8 1.5 6.8 5.3 9.8 8.3 3.8 3.7 3.7 3.8 7-.5 4.2-5.5 9.1-10.2 16.3-10.6 13.4-.9 26.2 7.9 23.9 24.6 5.6 1.6 11.1 3 16.4 4.9 12.4 4.4 24.8 9 37.2 13.5 4.9 1.8 5.2 2.4 3.4 7.4-3.5 9.6-7.1 19.3-10.5 28.9-1.4 3.9-3.6 4.8-7.4 3.4-14.6-5.4-29.3-10.4-43.7-16.2-4-1.6-7.1-5.4-10.5-8.3-1.3-1.2-2.5-2.7-4.3-4.7zm68.2-3.8c-11.6-4.2-22.7-7.8-33.5-12.4-6.4-2.7-13.1-3.7-19.1-1.3-3.9 1.6-6.4 6.5-9.4 10-.1.2.1.9.4 1.2 4.6 4.1 7.5 10 13.9 12.3 11.5 4 22.9 8.3 34.3 12.4 1.5.5 3 .9 4.7 1.5 2.9-8 5.7-15.5 8.7-23.7zM571 176.7c-6-8.3-13.2-14.8-23.5-16.9-1.8-.4-3.6-1.3-5.4-2-8-2.9-15.9-5.7-24.3-8.8-3 8.1-5.8 15.8-8.7 23.8 13 4.7 25.3 9.3 37.7 13.8 9.2 3.4 15 1.8 21.1-5.9 1.1-1.4 2.1-2.8 3.1-4zm28.9-13.9c-.2-.4-.4-.7-.7-1.1-3.1 1.9-6.9 3.1-9.2 5.7-7.5 8.7-14.3 18-21.5 26.9-4.3 5.4-3.5 12.5 2 17.5 4.4 4 13.3 3.2 17.2-1.6 7.5-9.3 14.6-18.9 22.1-28.2 3.3-4.1 2.5-8.4.6-12.3-1.8-4.2-5.3-7.2-10.5-6.9z"/><path class="st5" d="M560.5 671.2l1.2 12.3 8.8 8.9 12.9 1.1 17.6-16.4 11.8 14.7 49.4 17.6 11.7-32.3-59.9-18.8 2.3-11.2-7.6-8.8-11.8-4.7-12.9 7.6-6.5 10-14.1-14.1-47-17.6-11.8 31.7z"/><path d="M601.1 684c-2 2.3-4 4.1-5.3 6.2-9.5 15.4-33.6 8.2-37.4-5-1-3.7-1-7.7-1.5-11.2-18.9-3-36.1-12.2-54.4-18.1-2.6-.8-3.7-2.8-2.5-5.9 3.9-10.1 7.6-20.3 11.2-30.5 1.3-3.6 3-4.4 6.6-3.1 15.2 5.7 30.7 10.9 45.7 16.9 3.8 1.5 6.8 5.3 9.8 8.3 3.8 3.7 3.7 3.8 7-.5 4.2-5.5 9.1-10.2 16.3-10.6 13.4-.9 26.2 7.9 23.9 24.6 5.6 1.6 11.1 3 16.4 4.9 12.4 4.4 24.8 9 37.2 13.5 4.9 1.8 5.2 2.4 3.4 7.4-3.5 9.6-7.1 19.3-10.5 28.9-1.4 3.9-3.6 4.8-7.4 3.4-14.6-5.4-29.3-10.4-43.7-16.2-4-1.6-7.1-5.4-10.5-8.3-1.3-1.2-2.5-2.7-4.3-4.7zm68.2-3.8c-11.6-4.2-22.7-7.8-33.5-12.4-6.4-2.7-13.1-3.7-19.1-1.3-3.9 1.6-6.4 6.5-9.4 10-.1.2.1.9.4 1.2 4.6 4.1 7.5 10 13.9 12.3 11.5 4 22.9 8.3 34.3 12.4 1.5.5 3 .9 4.7 1.5 2.9-8 5.7-15.5 8.7-23.7zM571 652.8c-6-8.3-13.2-14.8-23.5-16.9-1.8-.4-3.6-1.3-5.4-2-8-2.9-15.9-5.7-24.3-8.8-3 8.1-5.8 15.8-8.7 23.8 13 4.7 25.3 9.3 37.7 13.8 9.2 3.4 15 1.8 21.1-5.9 1.1-1.3 2.1-2.7 3.1-4zm28.9-13.9c-.2-.4-.4-.7-.7-1.1-3.1 1.9-6.9 3.1-9.2 5.7-7.5 8.7-14.3 18-21.5 26.9-4.3 5.4-3.5 12.5 2 17.5 4.4 4 13.3 3.2 17.2-1.6 7.5-9.3 14.6-18.9 22.1-28.2 3.3-4.1 2.5-8.4.6-12.3-1.8-4.2-5.3-7.2-10.5-6.9z"/><path class="st5" d="M622.6 1145.3l1.2 12.4 8.8 8.8 12.9 1.2 17.7-16.5 11.7 14.7 49.4 17.7 11.8-32.4-60-18.8 2.4-11.2-7.7-8.8-11.7-4.7-13 7.7-6.4 10-14.2-14.1-47-17.7-11.7 31.8z"/><path d="M663.2 1158.2c-2 2.3-4 4.1-5.3 6.2-9.5 15.4-33.6 8.2-37.4-5-1-3.7-1-7.7-1.5-11.2-18.9-3-36.1-12.2-54.4-18.1-2.6-.8-3.7-2.8-2.5-5.9 3.9-10.1 7.6-20.3 11.2-30.5 1.3-3.6 3-4.4 6.6-3.1 15.2 5.7 30.7 10.9 45.7 16.9 3.8 1.5 6.8 5.3 9.8 8.3 3.8 3.7 3.7 3.8 7-.5 4.2-5.5 9.1-10.2 16.3-10.6 13.4-.9 26.2 7.9 23.9 24.6 5.6 1.6 11.1 3 16.4 4.9 12.4 4.4 24.8 9 37.2 13.5 4.9 1.8 5.2 2.4 3.4 7.4-3.5 9.6-7.1 19.3-10.5 28.9-1.4 3.9-3.6 4.8-7.4 3.4-14.6-5.4-29.3-10.4-43.7-16.2-4-1.6-7.1-5.4-10.5-8.3-1.3-1.2-2.4-2.7-4.3-4.7zm68.2-3.8c-11.6-4.2-22.7-7.8-33.5-12.4-6.4-2.7-13.1-3.7-19.1-1.3-3.9 1.6-6.4 6.5-9.4 10-.1.2.1.9.4 1.2 4.6 4.1 7.5 10 13.9 12.3 11.5 4 22.9 8.3 34.3 12.4 1.5.5 3 .9 4.7 1.5 3-8 5.7-15.6 8.7-23.7zm-98.3-27.4c-6-8.3-13.2-14.8-23.5-16.9-1.8-.4-3.6-1.3-5.4-2-8-2.9-15.9-5.7-24.3-8.8-3 8.1-5.8 15.8-8.7 23.8 13 4.7 25.3 9.3 37.7 13.8 9.2 3.4 15 1.8 21.1-5.9 1.1-1.4 2.1-2.8 3.1-4zm28.9-13.9c-.2-.4-.4-.7-.7-1.1-3.1 1.9-6.9 3.1-9.2 5.7-7.5 8.7-14.3 18-21.5 26.9-4.3 5.4-3.5 12.5 2 17.5 4.4 4 13.3 3.2 17.2-1.6 7.5-9.3 14.6-18.9 22.1-28.2 3.3-4.1 2.5-8.4.6-12.3-1.8-4.2-5.3-7.2-10.5-6.9z"/><path class="st5" d="M870.6 1489.3l1.2 12.4 8.8 8.8 12.9 1.2 17.7-16.5 11.7 14.7 49.4 17.7 11.8-32.4-60-18.8 2.4-11.2-7.7-8.8-11.7-4.7-13 7.7-6.4 10-14.2-14.1-47-17.7-11.7 31.8z"/><path d="M911.2 1502.2c-2 2.3-4 4.1-5.3 6.2-9.5 15.4-33.6 8.2-37.4-5-1-3.7-1-7.7-1.5-11.2-18.9-3-36.1-12.2-54.4-18.1-2.6-.8-3.7-2.8-2.5-5.9 3.9-10.1 7.6-20.3 11.2-30.5 1.3-3.6 3-4.4 6.6-3.1 15.2 5.7 30.7 10.9 45.7 16.9 3.8 1.5 6.8 5.3 9.8 8.3 3.8 3.7 3.7 3.8 7-.5 4.2-5.5 9.1-10.2 16.3-10.6 13.4-.9 26.2 7.9 23.9 24.6 5.6 1.6 11.1 3 16.4 4.9 12.4 4.4 24.8 9 37.2 13.5 4.9 1.8 5.2 2.4 3.4 7.4-3.5 9.6-7.1 19.3-10.5 28.9-1.4 3.9-3.6 4.8-7.4 3.4-14.6-5.4-29.3-10.4-43.7-16.2-4-1.6-7.1-5.4-10.5-8.3-1.3-1.2-2.4-2.7-4.3-4.7zm68.2-3.8c-11.6-4.2-22.7-7.8-33.5-12.4-6.4-2.7-13.1-3.7-19.1-1.3-3.9 1.6-6.4 6.5-9.4 10-.1.2.1.9.4 1.2 4.6 4.1 7.5 10 13.9 12.3 11.5 4 22.9 8.3 34.3 12.4 1.5.5 3 .9 4.7 1.5 3-8 5.7-15.6 8.7-23.7zm-98.3-27.4c-6-8.3-13.2-14.8-23.5-16.9-1.8-.4-3.6-1.3-5.4-2-8-2.9-15.9-5.7-24.3-8.8-3 8.1-5.8 15.8-8.7 23.8 13 4.7 25.3 9.3 37.7 13.8 9.2 3.4 15 1.8 21.1-5.9 1.1-1.4 2.1-2.8 3.1-4zm28.9-13.9c-.2-.4-.4-.7-.7-1.1-3.1 1.9-6.9 3.1-9.2 5.7-7.5 8.7-14.3 18-21.5 26.9-4.3 5.4-3.5 12.5 2 17.5 4.4 4 13.3 3.2 17.2-1.6 7.5-9.3 14.6-18.9 22.1-28.2 3.3-4.1 2.5-8.4.6-12.3-1.8-4.2-5.3-7.2-10.5-6.9z"/><path class="st5" d="M1362.6 1588.3l1.2 12.4 8.8 8.8 12.9 1.2 17.7-16.5 11.7 14.7 49.4 17.7 11.8-32.4-60-18.8 2.4-11.2-7.7-8.8-11.7-4.7-13 7.7-6.4 10-14.2-14.1-47-17.7-11.7 31.8z"/><path d="M1403.2 1601.2c-2 2.3-4 4.1-5.3 6.2-9.5 15.4-33.6 8.2-37.4-5-1-3.7-1-7.7-1.5-11.2-18.9-3-36.1-12.2-54.4-18.1-2.6-.8-3.7-2.8-2.5-5.9 3.9-10.1 7.6-20.3 11.2-30.5 1.3-3.6 3-4.4 6.6-3.1 15.2 5.7 30.7 10.9 45.7 16.9 3.8 1.5 6.8 5.3 9.8 8.3 3.8 3.7 3.7 3.8 7-.5 4.2-5.5 9.1-10.2 16.3-10.6 13.4-.9 26.2 7.9 23.9 24.6 5.6 1.6 11.1 3 16.4 4.9 12.4 4.4 24.8 9 37.2 13.5 4.9 1.8 5.2 2.4 3.4 7.4-3.5 9.6-7.1 19.3-10.5 28.9-1.4 3.9-3.6 4.8-7.4 3.4-14.6-5.4-29.3-10.4-43.7-16.2-4-1.6-7.1-5.4-10.5-8.3-1.3-1.2-2.4-2.7-4.3-4.7zm68.2-3.8c-11.6-4.2-22.7-7.8-33.5-12.4-6.4-2.7-13.1-3.7-19.1-1.3-3.9 1.6-6.4 6.5-9.4 10-.1.2.1.9.4 1.2 4.6 4.1 7.5 10 13.9 12.3 11.5 4 22.9 8.3 34.3 12.4 1.5.5 3 .9 4.7 1.5 3-8 5.7-15.6 8.7-23.7zm-98.3-27.4c-6-8.3-13.2-14.8-23.5-16.9-1.8-.4-3.6-1.3-5.4-2-8-2.9-15.9-5.7-24.3-8.8-3 8.1-5.8 15.8-8.7 23.8 13 4.7 25.3 9.3 37.7 13.8 9.2 3.4 15 1.8 21.1-5.9 1.1-1.4 2.1-2.8 3.1-4zm28.9-13.9c-.2-.4-.4-.7-.7-1.1-3.1 1.9-6.9 3.1-9.2 5.7-7.5 8.7-14.3 18-21.5 26.9-4.3 5.4-3.5 12.5 2 17.5 4.4 4 13.3 3.2 17.2-1.6 7.5-9.3 14.6-18.9 22.1-28.2 3.3-4.1 2.5-8.4.6-12.3-1.8-4.2-5.3-7.2-10.5-6.9z"/><path class="st5" d="M1650.6 1592.3l1.2 12.4 8.8 8.8 12.9 1.2 17.7-16.5 11.7 14.7 49.4 17.7 11.8-32.4-60-18.8 2.4-11.2-7.7-8.8-11.7-4.7-13 7.7-6.4 10-14.2-14.1-47-17.7-11.7 31.8z"/><path d="M1691.2 1605.2c-2 2.3-4 4.1-5.3 6.2-9.5 15.4-33.6 8.2-37.4-5-1-3.7-1-7.7-1.5-11.2-18.9-3-36.1-12.2-54.4-18.1-2.6-.8-3.7-2.8-2.5-5.9 3.9-10.1 7.6-20.3 11.2-30.5 1.3-3.6 3-4.4 6.6-3.1 15.2 5.7 30.7 10.9 45.7 16.9 3.8 1.5 6.8 5.3 9.8 8.3 3.8 3.7 3.7 3.8 7-.5 4.2-5.5 9.1-10.2 16.3-10.6 13.4-.9 26.2 7.9 23.9 24.6 5.6 1.6 11.1 3 16.4 4.9 12.4 4.4 24.8 9 37.2 13.5 4.9 1.8 5.2 2.4 3.4 7.4-3.5 9.6-7.1 19.3-10.5 28.9-1.4 3.9-3.6 4.8-7.4 3.4-14.6-5.4-29.3-10.4-43.7-16.2-4-1.6-7.1-5.4-10.5-8.3-1.3-1.2-2.4-2.7-4.3-4.7zm68.2-3.8c-11.6-4.2-22.7-7.8-33.5-12.4-6.4-2.7-13.1-3.7-19.1-1.3-3.9 1.6-6.4 6.5-9.4 10-.1.2.1.9.4 1.2 4.6 4.1 7.5 10 13.9 12.3 11.5 4 22.9 8.3 34.3 12.4 1.5.5 3 .9 4.7 1.5 3-8 5.7-15.6 8.7-23.7zm-98.3-27.4c-6-8.3-13.2-14.8-23.5-16.9-1.8-.4-3.6-1.3-5.4-2-8-2.9-15.9-5.7-24.3-8.8-3 8.1-5.8 15.8-8.7 23.8 13 4.7 25.3 9.3 37.7 13.8 9.2 3.4 15 1.8 21.1-5.9 1.1-1.4 2.1-2.8 3.1-4zm28.9-13.9c-.2-.4-.4-.7-.7-1.1-3.1 1.9-6.9 3.1-9.2 5.7-7.5 8.7-14.3 18-21.5 26.9-4.3 5.4-3.5 12.5 2 17.5 4.4 4 13.3 3.2 17.2-1.6 7.5-9.3 14.6-18.9 22.1-28.2 3.3-4.1 2.5-8.4.6-12.3-1.8-4.2-5.3-7.2-10.5-6.9z"/><path class="st5" d="M2586.5 1601.3l1.2 12.3 8.8 8.8 12.9 1.2 17.7-16.4 11.7 14.7 49.4 17.6 11.8-32.3-60-18.9 2.4-11.1-7.7-8.8-11.7-4.7-13 7.6-6.4 10-14.1-14.1-47.1-17.7-11.7 31.8z"/><path d="M2627.1 1614.1c-2 2.3-4 4.1-5.3 6.2-9.5 15.4-33.6 8.2-37.4-5-1-3.7-1-7.7-1.5-11.2-18.9-3-36.1-12.2-54.4-18.1-2.6-.8-3.7-2.8-2.5-5.9 3.9-10.1 7.6-20.3 11.2-30.5 1.3-3.6 3-4.4 6.6-3.1 15.2 5.7 30.7 10.9 45.7 16.9 3.8 1.5 6.8 5.3 9.8 8.3 3.8 3.7 3.7 3.8 7-.5 4.2-5.5 9.1-10.2 16.3-10.6 13.4-.9 26.2 7.9 23.9 24.6 5.6 1.6 11.1 3 16.4 4.9 12.4 4.4 24.8 9 37.2 13.5 4.9 1.8 5.2 2.4 3.4 7.4-3.5 9.6-7.1 19.3-10.5 28.9-1.4 3.9-3.6 4.8-7.4 3.4-14.6-5.4-29.3-10.4-43.7-16.2-4-1.6-7.1-5.4-10.5-8.3-1.3-1.2-2.4-2.7-4.3-4.7zm68.2-3.8c-11.6-4.2-22.7-7.8-33.5-12.4-6.4-2.7-13.1-3.7-19.1-1.3-3.9 1.6-6.4 6.5-9.4 10-.1.2.1.9.4 1.2 4.6 4.1 7.5 10 13.9 12.3 11.5 4 22.9 8.3 34.3 12.4 1.5.5 3 .9 4.7 1.5 3-8 5.7-15.5 8.7-23.7zm-98.3-27.4c-6-8.3-13.2-14.8-23.5-16.9-1.8-.4-3.6-1.3-5.4-2-8-2.9-15.9-5.7-24.3-8.8-3 8.1-5.8 15.8-8.7 23.8 13 4.7 25.3 9.3 37.7 13.8 9.2 3.4 15 1.8 21.1-5.9 1.1-1.3 2.2-2.8 3.1-4zm28.9-13.9c-.2-.4-.4-.7-.7-1.1-3.1 1.9-6.9 3.1-9.2 5.7-7.5 8.7-14.3 18-21.5 26.9-4.3 5.4-3.5 12.5 2 17.5 4.4 4 13.3 3.2 17.2-1.6 7.5-9.3 14.6-18.9 22.1-28.2 3.3-4.1 2.5-8.4.6-12.3-1.8-4.2-5.3-7.2-10.5-6.9z"/><text transform="translate(1273.957 1909.292)" class="st6 st4">Cost ($ per km</text><text transform="matrix(.583 0 0 .583 1690.734 1889.312)" class="st6 st4">2</text><text transform="translate(1710.188 1909.292)" class="st6 st4">)</text><text transform="translate(91.292 835.372)"><tspan x="0" y="0" class="st6 st4">Spatial </tspan><tspan x="-56.6" y="72" class="st6 st4">Resolution </tspan><tspan x="-11.7" y="144" class="st6 st4">(meters)</tspan></text><text transform="translate(463.03 1667.563)" class="st7 st8 st3">0</text><text transform="translate(433.981 1649.563)" class="st1 st2 st3">0</text><text transform="translate(393.938 213.563)" class="st1 st2 st3">15</text><text transform="translate(393.938 689.896)" class="st1 st2 st3">10</text><text transform="translate(433.981 1166.23)" class="st1 st2 st3">5</text></g></svg>