<svg xmlns="http://www.w3.org/2000/svg" viewBox="0 0 252 252"><g id="search"><g id="XMLID_81_"><circle id="XMLID_90_" fill="none" stroke="#000" stroke-width="2" stroke-linecap="round" stroke-linejoin="round" stroke-miterlimit="10" cx="118.9" cy="118.9" r="49.8"/><path id="XMLID_89_" fill="none" stroke="#000" stroke-width="4" stroke-linejoin="round" stroke-miterlimit="10" d="M155.1 162c7.4 9.1 28.7 31.6 33.6 26.7 4.9-4.9-17.7-26-26.9-33.3"/><circle id="XMLID_88_" fill="none" stroke="#000" stroke-width="4.2" stroke-linecap="round" stroke-linejoin="round" stroke-miterlimit="10" cx="118.9" cy="118.9" r="56.2"/><g id="XMLID_82_"><path id="XMLID_87_" fill="none" stroke="#000" stroke-width="2.571" stroke-linecap="round" stroke-linejoin="round" stroke-miterlimit="10" d="M149.9 109.8v5.3l-32.1 21.4-32.1-21.4c-2.8-2.6-2.7-7.9 0-10.7L117.8 83l32.1 21.4-32.1 21.4-32.1-21.4"/><g id="XMLID_85_"><path id="XMLID_86_" fill="none" stroke="#000" stroke-width="2" stroke-linecap="round" stroke-linejoin="round" stroke-miterlimit="10" d="M126.5 102.1l5.1-3.4-13.4-9-5.2 3.5 13.5 9"/></g><path id="XMLID_84_" fill="none" stroke="#000" stroke-width="2.571" stroke-linecap="round" stroke-linejoin="round" stroke-miterlimit="10" d="M149.9 120.5v5.3l-32.1 21.4-32.1-21.4c-2-1.8-2.5-5-1.7-7.7"/><path id="XMLID_83_" fill="none" stroke="#000" stroke-width="2.571" stroke-linecap="round" stroke-linejoin="round" stroke-miterlimit="10" d="M149.9 131.2v5.3l-32.1 21.4-32.1-21.4c-2-1.8-2.5-5-1.7-7.7"/></g></g></g></svg>