<?xml version="1.0" encoding="utf-8"?>
<!-- Generator: Adobe Illustrator 19.1.0, SVG Export Plug-In . SVG Version: 6.00 Build 0)  -->
<svg version="1.1" id="Layer_1" xmlns="http://www.w3.org/2000/svg" xmlns:xlink="http://www.w3.org/1999/xlink" x="0px" y="0px"
	 viewBox="0 0 254.7 58.7" style="enable-background:new 0 0 254.7 58.7;" xml:space="preserve">
<style type="text/css">
	.st0{clip-path:url(#SVGID_2_);}
</style>
<g>
	<g>
		<defs>
			<path id="SVGID_1_" d="M36.6,44.7c3.1,0,6.1-0.5,8.7-1.4c0.7-0.2,1.3-0.5,1.9-0.7c-0.7,1.8-1.8,3.3-3.2,4.4c-2.7,2-6,3.4-9.5,3.9
				C35.3,49.4,36,47.2,36.6,44.7 M21.9,49c-0.1-0.1-0.1-0.1-0.2-0.1c-1.2-0.6-1.7-3.3-1.1-7.5c2.3,1.1,4.9,1.9,7.6,2.5
				c2,0.4,4.1,0.7,6.1,0.8c-1,4.2-2.2,6.5-3,6.5c-0.1,0-0.1,0-0.2,0C27.8,51.1,24.7,50.4,21.9,49 M10.6,35.5
				c-0.2-0.7-0.3-1.4-0.4-2.2c0.7,1,1.6,2.1,2.7,3.1c1.6,1.5,3.5,2.8,5.7,4c-0.4,2.4-0.6,4.6-0.3,6.4C14.6,44,11.9,40.1,10.6,35.5
				 M38,29.6c0-0.9,0-1.7,0-2.6c2.7-0.2,5.3-0.9,7.4-2.1c1.9,3.8,3,7.8,2.9,11.6c0,1.1-0.1,2.1-0.3,3.1c-1,0.6-2.1,1.1-3.4,1.6
				c-2.3,0.8-4.8,1.2-7.6,1.3C37.7,38.6,38,34,38,29.6 M28.7,41.7c-2.7-0.6-5.3-1.5-7.6-2.5c0.8-3.4,2.2-7.6,4.5-12.3
				c0.3-0.7,0.7-1.3,1-2c1.6,0.7,3.3,1.3,5.1,1.7c1.4,0.3,2.7,0.5,4.1,0.5c0,0.8,0,1.7,0,2.6c0,5.2-0.4,9.5-1,12.9
				C32.8,42.4,30.8,42.1,28.7,41.7 M14.4,34.8c-1.9-1.7-3.2-3.6-3.8-5.4c0.5-2,1.5-4.1,3-6c1.4-1.9,3.1-3.5,5.2-5
				c0.6,1,1.4,2.1,2.4,3c1,0.9,2.1,1.7,3.4,2.5c-0.3,0.7-0.7,1.3-1,2c-2,4-3.5,8.3-4.5,12.2C17.3,37.1,15.8,36,14.4,34.8 M36.5,14.3
				c2.5,1.9,4.8,4.3,6.7,7.1c0.4,0.5,0.7,1.1,1,1.6c-1.8,1-4,1.6-6.4,1.8C37.6,21,37.2,17.4,36.5,14.3 M32.1,24.4
				c-1.6-0.3-3.1-0.8-4.5-1.4c2.1-3.6,4.3-6.7,6.5-9c0.7,2.7,1.3,6.4,1.5,10.9C34.5,24.8,33.3,24.7,32.1,24.4 M22.7,19.8
				c-0.9-0.9-1.6-1.7-2.1-2.6c2.1-1.2,4.3-2.3,6.8-3c1.4-0.4,2.9-0.8,4.4-1c-2.1,2.4-4.2,5.4-6.1,8.8C24.5,21.3,23.5,20.6,22.7,19.8
				 M18,12.8c0,0.1-0.1,0.2-0.1,0.3c-0.2,1-0.2,2.1,0.1,3.2c-2.4,1.6-4.4,3.6-6.1,5.7c-0.5,0.7-0.9,1.3-1.4,2
				C11.7,19.6,14.4,15.6,18,12.8 M20,13.6c0.2-1.1,0.9-2.2,2-3c2.6-0.8,5.6-0.6,8.7,0.6c-1.3,0.2-2.6,0.5-4,0.9
				c-2.4,0.7-4.7,1.7-6.8,2.9C19.9,14.6,19.9,14.1,20,13.6 M37.9,10.7c0.8-0.5,1.5-0.8,2-1c1.1,0.4,2.2,1,3.2,1.7
				C41.5,11.1,39.7,10.8,37.9,10.7 M34.2,8.4C35.1,8.4,36,8.6,37,8.8c-0.6,0.3-1.2,0.7-1.9,1.2C34.8,9.4,34.5,8.8,34.2,8.4
				 M31.8,9.2c-1-0.4-2-0.7-3-0.9c0.8-0.1,1.6-0.1,2.4-0.1c0.4,0,0.8,0.5,1.3,1.3C32.3,9.4,32,9.3,31.8,9.2 M7.6,29.7
				c0,2.3,0.3,4.4,0.9,6.5c0,0.1,0.1,0.3,0.1,0.4c0,0,0,0,0,0.1c3,9.7,12,16.7,22.6,16.7c4.9,0,9.5-1.5,13.3-4.1c0,0,0.1,0,0.1-0.1
				c0.2-0.2,0.4-0.3,0.7-0.5c4.4-3.2,7.6-7.9,8.9-13.3c0.1-0.2,0.1-0.5,0.2-0.8c0-0.1,0-0.1,0-0.2c0.3-1.6,0.5-3.2,0.5-4.8
				c0-3.2-0.6-6.3-1.9-9.2c-0.2-0.6-0.9-0.8-1.4-0.6c-0.6,0.2-0.8,0.9-0.6,1.4c1.1,2.6,1.7,5.5,1.7,8.4c0,1.8-0.2,3.5-0.6,5.2
				c-0.3,1-0.9,2-1.7,2.9c0-0.4,0-0.8,0-1.1c0-4.2-1.2-8.7-3.3-12.9c1.6-1.4,2.6-3,3-4.9c0.1-0.6-0.3-1.2-0.9-1.3
				c-0.6-0.1-1.2,0.3-1.3,0.9c-0.2,1.2-0.9,2.4-1.9,3.4c-0.3-0.5-0.6-1-1-1.5c-1.9-2.8-4.2-5.3-6.7-7.2c3.3,0.2,6.4,1,8.9,2.4
				c0.4,0.2,0.9,0.2,1.3-0.1c0.5-0.4,0.5-1.1,0.1-1.6C45,8.7,38.8,6,31.2,6C18.2,6,7.6,16.6,7.6,29.7"/>
		</defs>
		<use xlink:href="#SVGID_1_"  style="overflow:visible;"/>
		<clipPath id="SVGID_2_">
			<use xlink:href="#SVGID_1_"  style="overflow:visible;"/>
		</clipPath>
		<rect x="7.6" y="6" class="st0" width="47.4" height="47.4"/>
	</g>
	<path d="M243.7,22.7c3.5,0,5.4,1.7,5.4,4.8c0,2.9-1.9,4.6-5.1,4.6h-2.2v4.4h-3V22.7H243.7z M241.8,29.7h1.8c1.7,0,2.6-0.7,2.6-2.2
		c0-1.5-0.9-2.3-2.7-2.3h-1.7V29.7z M233.4,31c0,2-0.8,3-2.4,3c-1.6,0-2.4-1-2.4-3v-8.3h-3v8.1c0,2,0.5,3.5,1.5,4.5
		c0.9,0.9,2.2,1.4,3.9,1.4c2.4,0,5.3-1,5.3-5.9v-8.1h-2.9V31z M217.6,22.6c3,0,6.2,1.9,6.2,7.1c0,5.2-3.2,7-6.2,7
		c-3,0-6.2-1.8-6.2-7C211.4,24.5,214.6,22.6,217.6,22.6 M217.6,34.1c1.2,0,3.1-0.6,3.1-4.4c0-3.9-2-4.4-3.1-4.4
		c-2,0-3.2,1.6-3.2,4.4C214.4,32.5,215.6,34.1,217.6,34.1 M208.4,32.4c0.5,1,0.9,1.8,1.9,1.8h0.7v2.3l-0.1,0c0,0-0.5,0.1-1.4,0.1
		c-2.3,0-3-1.6-3.7-3c-0.5-1.2-1-2.2-2.2-2.2h-1.3v5.1h-2.9V22.7h4.9c3.6,0,5.3,1.4,5.3,4.4c0,1.9-1.1,3-2.2,3.5
		C207.7,31.1,208,31.8,208.4,32.4 M202.2,29.2h1.6c1.6,0,2.7-0.8,2.7-2c0-1.3-0.9-2-2.4-2h-1.9V29.2z M191.4,31.5h3v0.2
		c0,0.9-0.3,2.4-2.4,2.4c-2,0-3.2-1.6-3.2-4.4c0-2.8,1.1-4.4,3.1-4.4c2.4,0,2.5,2.4,2.5,2.5l0,0.2l2.8-0.4v-0.1c0-1-0.9-4.7-5.3-4.7
		c-3.9,0-6.1,2.6-6.1,7.1c0,4.4,2.3,7,6.2,7c3.9,0,5.3-2.7,5.3-5v-2.4h-5.8V31.5z M182.6,22.7h-3.5l-4.6,6.2v-6.2h-3v13.8h3v-6.4
		l4.7,6.4h3.5l-5.4-7L182.6,22.7z M165.9,31.3l-4.8-8.6h-3v13.8h3v-8.3l4.8,8.3h3V22.7h-2.9V31.3z M152.3,22.8l5,13.8h-3.1l-1.2-3.4
		h-4.6l-1.1,3.4h-3.1l5.1-13.8L152.3,22.8L152.3,22.8z M150.8,26.5l-1.5,4.4h3L150.8,26.5z M141.5,29.3c1.1,0.3,2.5,1.3,2.5,3.4
		c0,2.5-1.8,3.9-4.9,3.9h-5.8V22.7h5.3c3,0,4.5,1.3,4.5,3.7C143,28.4,142.2,29.1,141.5,29.3 M138.2,28.4c1.2,0,1.8-0.5,1.8-1.6
		c0-1.1-0.7-1.6-2.2-1.6h-1.6v3.2H138.2z M136.2,34.1h2.3c1.5,0,2.2-0.6,2.2-1.8c0-1.5-1.2-1.8-2.3-1.8h-2.2V34.1z M121.1,22.7
		c4.3,0,6.9,2.7,6.9,7.2c0,4.3-2.3,6.7-6.3,6.7H117V22.7H121.1z M119.9,34.1h1.7c2.1,0,3.4-1.6,3.4-4.3c0-3.1-1.3-4.7-4-4.7h-1.1
		V34.1z M109.6,22.7h-3v13.8h8.9v-2.4h-6V22.7z M102.7,32.4c0.5,1,0.9,1.8,1.9,1.8h0.7v2.3l-0.1,0c0,0-0.5,0.1-1.4,0.1
		c-2.3,0-3-1.6-3.7-3c-0.5-1.2-1-2.2-2.2-2.2h-1.3v5.1h-2.9V22.7h4.9c3.6,0,5.3,1.4,5.3,4.4c0,1.9-1.1,3-2.2,3.5
		C102.1,31.1,102.4,31.8,102.7,32.4 M96.6,29.2h1.6c1.6,0,2.7-0.8,2.7-2c0-1.3-0.9-2-2.4-2h-1.9V29.2z M85.8,22.6
		c3,0,6.2,1.9,6.2,7.1c0,5.2-3.2,7-6.2,7c-3,0-6.2-1.8-6.2-7C79.6,24.5,82.8,22.6,85.8,22.6 M85.8,34.1c1.2,0,3.1-0.6,3.1-4.4
		c0-3.9-2-4.4-3.1-4.4c-2,0-3.2,1.6-3.2,4.4C82.6,32.5,83.7,34.1,85.8,34.1 M75.8,22.7h3.3l-4,13.8h-3.3l-2.4-8.7L67,36.6h-3.3
		l-4-13.8h3.4l2.3,10.1l2.8-10.1h2.5l2.7,10.1L75.8,22.7z"/>
</g>
</svg>
