<?xml version="1.0" encoding="utf-8"?>
<!-- Generator: Adobe Illustrator 19.0.0, SVG Export Plug-In . SVG Version: 6.00 Build 0)  -->
<svg version="1.1" xmlns="http://www.w3.org/2000/svg" xmlns:xlink="http://www.w3.org/1999/xlink" x="0px" y="0px"
	 viewBox="0 0 252 252" enable-background="new 0 0 252 252" xml:space="preserve">
<g id="wht_block" display="none">
	<rect id="XMLID_32_" x="0" y="0" display="inline" fill="#FFFFFF" width="252" height="252"/>
</g>
<g id="mos_1_" display="none">
	<g id="XMLID_28_" display="inline">
		
			<polygon id="XMLID_56_" fill="none" stroke="#000000" stroke-width="4" stroke-linecap="round" stroke-linejoin="round" stroke-miterlimit="10" points="
			119.5,90 125.5,72 179.5,72 167.5,108 179.5,108 161.5,162 131.5,162 125.5,180 71.5,180 83.5,144 71.5,144 89.5,90 		"/>
		
			<polyline id="XMLID_55_" fill="none" stroke="#000000" stroke-width="1.5" stroke-linecap="round" stroke-linejoin="round" stroke-miterlimit="10" stroke-dasharray="5" points="
			119.5,90 143.5,90 137.5,108 		"/>
		
			<polyline id="XMLID_54_" fill="none" stroke="#000000" stroke-width="1.5" stroke-linecap="round" stroke-linejoin="round" stroke-miterlimit="10" stroke-dasharray="5" points="
			83.5,144 89.5,126 119.5,126 		"/>
		<g id="XMLID_31_">
			<g id="XMLID_43_">
				
					<line id="XMLID_53_" fill="none" stroke="#000000" stroke-width="1.5" stroke-linecap="round" stroke-linejoin="round" x1="167.5" y1="108" x2="165" y2="108"/>
				
					<line id="XMLID_52_" fill="none" stroke="#000000" stroke-width="1.5" stroke-linecap="round" stroke-linejoin="round" stroke-dasharray="5.2857,5.2857" x1="159.7" y1="108" x2="130.6" y2="108"/>
				
					<polyline id="XMLID_51_" fill="none" stroke="#000000" stroke-width="1.5" stroke-linecap="round" stroke-linejoin="round" points="
					128,108 125.5,108 124.7,110.4 				"/>
				
					<line id="XMLID_50_" fill="none" stroke="#000000" stroke-width="1.5" stroke-linecap="round" stroke-linejoin="round" stroke-dasharray="4.7201,4.7201" x1="123.2" y1="114.8" x2="109" y2="157.4"/>
				
					<polyline id="XMLID_49_" fill="none" stroke="#000000" stroke-width="1.5" stroke-linecap="round" stroke-linejoin="round" points="
					108.3,159.6 107.5,162 110,162 				"/>
				
					<line id="XMLID_48_" fill="none" stroke="#000000" stroke-width="1.5" stroke-linecap="round" stroke-linejoin="round" stroke-dasharray="6.3333,6.3333" x1="116.3" y1="162" x2="125.8" y2="162"/>
				
					<line id="XMLID_44_" fill="none" stroke="#000000" stroke-width="1.5" stroke-linecap="round" stroke-linejoin="round" x1="129" y1="162" x2="131.5" y2="162"/>
			</g>
		</g>
	</g>
</g>
<g id="host" display="none">
	<g id="XMLID_4_" display="inline">
		
			<path id="XMLID_35_" fill="none" stroke="#000000" stroke-width="4" stroke-linecap="round" stroke-linejoin="round" stroke-miterlimit="10" d="
			M77,177.2c-5,0-9-4-9-9c0,0,0-69.6,0-72s1.8-4.5,4.5-4.5c0,0,13.7,0,18,0s4.7,9,9,9c0.3,0,0.9,0,1.6,0"/>
		
			<polyline id="XMLID_37_" fill="none" stroke="#000000" stroke-width="2.5" stroke-linecap="round" stroke-linejoin="round" stroke-miterlimit="10" points="
			99,109.9 107.8,83.5 122.5,83.5 125.4,74.8 151.8,74.8 149.8,80.7 		"/>
		
			<polyline id="XMLID_36_" fill="none" stroke="#000000" stroke-width="2.5" stroke-linecap="round" stroke-linejoin="round" stroke-miterlimit="10" points="
			116.6,109.7 123.3,89.5 138,89.5 140.9,80.7 167.2,80.7 165.4,86.2 		"/>
		
			<polyline id="XMLID_1_" fill="none" stroke="#000000" stroke-width="2.5" stroke-linecap="round" stroke-linejoin="round" stroke-miterlimit="10" points="
			134.1,109.8 139.1,95 153.7,95 156.6,86.2 183,86.2 177.1,103.8 183,103.8 176,124.7 		"/>
		
			<path id="XMLID_34_" fill="none" stroke="#000000" stroke-width="4" stroke-linecap="round" stroke-linejoin="round" stroke-miterlimit="10" d="
			M176,168.2c0,0,0-51.5,0-54s-2.5-4.5-4.5-4.5s-78.7,0-81,0s-4.5,1.8-4.5,4.5s0,54,0,54c0,5-4,9-9,9"/>
		
			<path id="XMLID_33_" fill="none" stroke="#000000" stroke-width="4" stroke-linecap="round" stroke-linejoin="round" stroke-miterlimit="10" d="
			M176,168.2c0,5-4,9-9,9H77"/>
	</g>
</g>
<g id="cloud">
	<g id="XMLID_2_">
		
			<polyline id="XMLID_58_" fill="none" stroke="#000000" stroke-width="2.5" stroke-linecap="round" stroke-linejoin="round" stroke-miterlimit="10" points="
			90,163.1 75.7,167.9 125.9,184.5 176,167.9 161.7,163.1 		"/>
		
			<polyline id="XMLID_38_" fill="none" stroke="#000000" stroke-width="2.5" stroke-linecap="round" stroke-linejoin="round" stroke-miterlimit="10" points="
			91.6,153.1 75.7,158.4 125.9,175 176,158.4 160.2,153.1 		"/>
		
			<path id="XMLID_77_" fill="none" stroke="#000000" stroke-width="4" stroke-linecap="round" stroke-linejoin="round" stroke-miterlimit="10" d="
			M160.6,85.5c-3.6,0-6.9,0.9-9.8,2.5c-2.9-11.8-13.5-20.5-26.2-20.5c-14.2,0-25.9,11-26.9,25C95,90.9,91.9,90,88.6,90
			c-9.9,0-18,8.1-18,18c0,9.9,8.1,18,18,18h72c11.2,0,20.2-9.1,20.2-20.2S171.8,85.5,160.6,85.5z"/>
		
			<polyline id="XMLID_61_" fill="none" stroke="#000000" stroke-width="3" stroke-linecap="round" stroke-linejoin="round" stroke-miterlimit="10" points="
			147.7,138.4 125.9,131.1 75.7,147.8 125.9,164.5 176,147.8 157.9,141.8 		"/>
		<g id="XMLID_69_">
			
				<line id="XMLID_75_" fill="none" stroke="#000000" stroke-width="0.2917" stroke-linecap="round" stroke-linejoin="round" stroke-miterlimit="10" x1="163.3" y1="143.6" x2="113.4" y2="160.3"/>
			
				<line id="XMLID_74_" fill="none" stroke="#000000" stroke-width="0.2917" stroke-linecap="round" stroke-linejoin="round" stroke-miterlimit="10" x1="138.3" y1="135.2" x2="88.5" y2="152"/>
			
				<line id="XMLID_59_" fill="none" stroke="#000000" stroke-width="0.2917" stroke-linecap="round" stroke-linejoin="round" stroke-miterlimit="10" x1="148.9" y1="140.1" x2="101" y2="156.1"/>
			
				<line id="XMLID_72_" fill="none" stroke="#000000" stroke-width="0.2917" stroke-linecap="round" stroke-linejoin="round" stroke-miterlimit="10" x1="88.5" y1="143.6" x2="138.3" y2="160.3"/>
			
				<line id="XMLID_71_" fill="none" stroke="#000000" stroke-width="0.2917" stroke-linecap="round" stroke-linejoin="round" stroke-miterlimit="10" x1="113.4" y1="135.2" x2="163.3" y2="152"/>
			
				<line id="XMLID_70_" fill="none" stroke="#000000" stroke-width="0.2917" stroke-linecap="round" stroke-linejoin="round" stroke-miterlimit="10" x1="101" y1="139.4" x2="150.8" y2="156.1"/>
		</g>
		<path id="XMLID_68_" fill="none" stroke="#000000" stroke-width="1.75" stroke-miterlimit="10" d="M162.6,139
			c-4.5,0-8.2-3.7-8.2-8.2c0-0.1-0.1-0.2-0.2-0.2s-0.2,0.1-0.2,0.2c0,4.5-3.7,8.2-8.2,8.2c-0.1,0-0.2,0.1-0.2,0.2s0.1,0.2,0.2,0.2
			c4.5,0,8.2,3.7,8.2,8.2c0,0.1,0.1,0.2,0.2,0.2s0.2-0.1,0.2-0.2c0-4.5,3.7-8.2,8.2-8.2c0.1,0,0.2-0.1,0.2-0.2S162.8,139,162.6,139z
			"/>
		
			<path id="XMLID_67_" fill="none" stroke="#000000" stroke-width="4" stroke-linecap="round" stroke-linejoin="round" stroke-miterlimit="10" d="
			M143.1,96c3.5-6.2,10-10.3,17.6-10.3c11.1,0,20.2,9,20.2,20.2"/>
		
			<path id="XMLID_47_" fill="none" stroke="#000000" stroke-width="3.9358" stroke-linecap="round" stroke-linejoin="round" stroke-miterlimit="10" d="
			M97.7,97.9c-0.2-1.2-0.2-2.4-0.2-3.6c0-15,12.1-26.9,27.1-26.9"/>
	</g>
</g>
<g id="cat" display="none">
	<g id="XMLID_39_" display="inline">
		
			<path id="XMLID_57_" fill="none" stroke="#000000" stroke-width="4" stroke-linecap="round" stroke-linejoin="round" stroke-miterlimit="10" d="
			M126,171c0,0,18-18,54-18V72c-36,0-54,18-54,18"/>
		
			<path id="XMLID_46_" fill="none" stroke="#000000" stroke-width="4" stroke-linecap="round" stroke-linejoin="round" stroke-miterlimit="10" d="
			M126,171c0,0-18-18-54-18V72c36,0,54,18,54,18"/>
		
			<path id="XMLID_45_" fill="none" stroke="#000000" stroke-width="4" stroke-linecap="round" stroke-linejoin="round" stroke-miterlimit="10" d="
			M126,180c0,0,18-18,54-18"/>
		
			<path id="XMLID_41_" fill="none" stroke="#000000" stroke-width="4" stroke-linecap="round" stroke-linejoin="round" stroke-miterlimit="10" d="
			M126,180c0,0-18-18-54-18"/>
		
			<line id="XMLID_40_" fill="none" stroke="#000000" stroke-width="2" stroke-linecap="round" stroke-linejoin="round" stroke-miterlimit="10" x1="126" y1="99" x2="126" y2="157.5"/>
	</g>
</g>
<g id="search" display="none">
	<g id="XMLID_81_" display="inline">
		
			<circle id="XMLID_90_" fill="none" stroke="#000000" stroke-width="2" stroke-linecap="round" stroke-linejoin="round" stroke-miterlimit="10" cx="118.9" cy="118.9" r="49.8"/>
		<path id="XMLID_89_" fill="none" stroke="#000000" stroke-width="4" stroke-linejoin="round" stroke-miterlimit="10" d="
			M155.1,162c7.4,9.1,28.7,31.6,33.6,26.7c4.9-4.9-17.7-26-26.9-33.3"/>
		
			<circle id="XMLID_88_" fill="none" stroke="#000000" stroke-width="4.2" stroke-linecap="round" stroke-linejoin="round" stroke-miterlimit="10" cx="118.9" cy="118.9" r="56.2"/>
		<g id="XMLID_82_">
			
				<path id="XMLID_87_" fill="none" stroke="#000000" stroke-width="2.5714" stroke-linecap="round" stroke-linejoin="round" stroke-miterlimit="10" d="
				M149.9,109.8v5.3l-32.1,21.4l-32.1-21.4c-2.8-2.6-2.7-7.9,0-10.7l32.1-21.4l32.1,21.4l-32.1,21.4l-32.1-21.4"/>
			<g id="XMLID_85_">
				
					<polyline id="XMLID_86_" fill="none" stroke="#000000" stroke-width="2" stroke-linecap="round" stroke-linejoin="round" stroke-miterlimit="10" points="
					126.5,102.1 131.6,98.7 118.2,89.7 113,93.2 126.5,102.2 				"/>
			</g>
			
				<path id="XMLID_84_" fill="none" stroke="#000000" stroke-width="2.5714" stroke-linecap="round" stroke-linejoin="round" stroke-miterlimit="10" d="
				M149.9,120.5v5.3l-32.1,21.4l-32.1-21.4c-2-1.8-2.5-5-1.7-7.7"/>
			
				<path id="XMLID_83_" fill="none" stroke="#000000" stroke-width="2.5714" stroke-linecap="round" stroke-linejoin="round" stroke-miterlimit="10" d="
				M149.9,131.2v5.3l-32.1,21.4l-32.1-21.4c-2-1.8-2.5-5-1.7-7.7"/>
		</g>
	</g>
</g>
</svg>
