<?xml version="1.0" encoding="utf-8"?>
<!-- Generator: Adobe Illustrator 19.1.0, SVG Export Plug-In . SVG Version: 6.00 Build 0)  -->
<svg version="1.1" xmlns="http://www.w3.org/2000/svg" xmlns:xlink="http://www.w3.org/1999/xlink" x="0px" y="0px"
	 width="3029.4px" height="2054.3px" viewBox="0 0 3029.4 2054.3" style="enable-background:new 0 0 3029.4 2054.3;"
	 xml:space="preserve">
<style type="text/css">
	.st0{fill:none;stroke:#CCCCCC;stroke-width:9;stroke-miterlimit:10;}
	.st1{fill:#7F7F7F;}
	.st2{font-family:'Helvetica';}
	.st3{font-size:72px;}
	.st4{font-size:60px;}
	.st5{fill:#FFFFFF;}
	.st6{font-family:'Helvetica-Bold';}
	.st7{fill:none;stroke:#FFFFFF;stroke-width:20;stroke-miterlimit:10;}
	.st8{font-family:'OpenSans';}
</style>
<g id="Layer_1">
	<polyline class="st0" points="583.9,186 583.9,1626 2603.9,1626 	"/>
	<text transform="matrix(1 0 0 1 561.0308 1742.5632)" class="st1 st2 st3">0</text>
	<text transform="matrix(1 0 0 1 2383.0308 1742.5632)" class="st1 st2 st3">30</text>
	<text transform="matrix(1 0 0 1 1154.6422 1742.5632)" class="st1 st2 st3">10</text>
	<text transform="matrix(1 0 0 1 1768.8361 1742.5632)" class="st1 st2 st3">20</text>
	<text transform="matrix(1 0 0 1 661.4156 141.0024)" class="st2 st4">Landscape 7-8</text>
	<text transform="matrix(1 0 0 1 656.4717 607.006)" class="st2 st4">Sentinel 2</text>
	<text transform="matrix(1 0 0 1 701.825 1085.0024)" class="st2 st4">RapidEye</text>
	<text transform="matrix(0.7071 -0.7071 0.7071 0.7071 977.9492 1435.093)" class="st2 st4">SPOT 6/7</text>
	<text transform="matrix(0.7071 -0.7071 0.7071 0.7071 1468.7135 1537.3165)" class="st2 st4">Pleiades</text>
	<text transform="matrix(0.7071 -0.7071 0.7071 0.7071 1766.406 1535.6312)" class="st2 st4">DG WV2</text>
	<text transform="matrix(0.7071 -0.7071 0.7071 0.7071 2686.4133 1537.6293)" class="st2 st4">DG WV3</text>
</g>
<g id="Layer_2">
	<g>
		<polygon class="st5" points="560.5,195.1 561.7,207.4 570.5,216.2 583.4,217.4 601,200.9 612.8,215.6 662.2,233.3 673.9,200.9 
			614,182.1 616.3,171 608.7,162.1 596.9,157.4 584,165.1 577.5,175.1 563.4,161 516.4,143.3 504.6,175.1 		"/>
		<g>
			<g>
				<path d="M601.1,207.9c-2,2.3-4,4.1-5.3,6.2c-9.5,15.4-33.6,8.2-37.4-5c-1-3.7-1-7.7-1.5-11.2c-18.9-3-36.1-12.2-54.4-18.1
					c-2.6-0.8-3.7-2.8-2.5-5.9c3.9-10.1,7.6-20.3,11.2-30.5c1.3-3.6,3-4.4,6.6-3.1c15.2,5.7,30.7,10.9,45.7,16.9
					c3.8,1.5,6.8,5.3,9.8,8.3c3.8,3.7,3.7,3.8,7-0.5c4.2-5.5,9.1-10.2,16.3-10.6c13.4-0.9,26.2,7.9,23.9,24.6
					c5.6,1.6,11.1,3,16.4,4.9c12.4,4.4,24.8,9,37.2,13.5c4.9,1.8,5.2,2.4,3.4,7.4c-3.5,9.6-7.1,19.3-10.5,28.9
					c-1.4,3.9-3.6,4.8-7.4,3.4c-14.6-5.4-29.3-10.4-43.7-16.2c-4-1.6-7.1-5.4-10.5-8.3C604.1,211.4,602.9,209.9,601.1,207.9z
					 M669.3,204.1c-11.6-4.2-22.7-7.8-33.5-12.4c-6.4-2.7-13.1-3.7-19.1-1.3c-3.9,1.6-6.4,6.5-9.4,10c-0.1,0.2,0.1,0.9,0.4,1.2
					c4.6,4.1,7.5,10,13.9,12.3c11.5,4,22.9,8.3,34.3,12.4c1.5,0.5,3,0.9,4.7,1.5C663.5,219.8,666.3,212.3,669.3,204.1z M571,176.7
					c-6-8.3-13.2-14.8-23.5-16.9c-1.8-0.4-3.6-1.3-5.4-2c-8-2.9-15.9-5.7-24.3-8.8c-3,8.1-5.8,15.8-8.7,23.8
					c13,4.7,25.3,9.3,37.7,13.8c9.2,3.4,15,1.8,21.1-5.9C569,179.3,570,177.9,571,176.7z M599.9,162.8c-0.2-0.4-0.4-0.7-0.7-1.1
					c-3.1,1.9-6.9,3.1-9.2,5.7c-7.5,8.7-14.3,18-21.5,26.9c-4.3,5.4-3.5,12.5,2,17.5c4.4,4,13.3,3.2,17.2-1.6
					c7.5-9.3,14.6-18.9,22.1-28.2c3.3-4.1,2.5-8.4,0.6-12.3C608.6,165.5,605.1,162.5,599.9,162.8z"/>
			</g>
		</g>
	</g>
	<g>
		<polygon class="st5" points="560.5,671.2 561.7,683.5 570.5,692.4 583.4,693.5 601,677.1 612.8,691.8 662.2,709.4 673.9,677.1 
			614,658.3 616.3,647.1 608.7,638.3 596.9,633.6 584,641.2 577.5,651.2 563.4,637.1 516.4,619.5 504.6,651.2 		"/>
		<g>
			<g>
				<path d="M601.1,684c-2,2.3-4,4.1-5.3,6.2c-9.5,15.4-33.6,8.2-37.4-5c-1-3.7-1-7.7-1.5-11.2c-18.9-3-36.1-12.2-54.4-18.1
					c-2.6-0.8-3.7-2.8-2.5-5.9c3.9-10.1,7.6-20.3,11.2-30.5c1.3-3.6,3-4.4,6.6-3.1c15.2,5.7,30.7,10.9,45.7,16.9
					c3.8,1.5,6.8,5.3,9.8,8.3c3.8,3.7,3.7,3.8,7-0.5c4.2-5.5,9.1-10.2,16.3-10.6c13.4-0.9,26.2,7.9,23.9,24.6
					c5.6,1.6,11.1,3,16.4,4.9c12.4,4.4,24.8,9,37.2,13.5c4.9,1.8,5.2,2.4,3.4,7.4c-3.5,9.6-7.1,19.3-10.5,28.9
					c-1.4,3.9-3.6,4.8-7.4,3.4c-14.6-5.4-29.3-10.4-43.7-16.2c-4-1.6-7.1-5.4-10.5-8.3C604.1,687.5,602.9,686,601.1,684z
					 M669.3,680.2c-11.6-4.2-22.7-7.8-33.5-12.4c-6.4-2.7-13.1-3.7-19.1-1.3c-3.9,1.6-6.4,6.5-9.4,10c-0.1,0.2,0.1,0.9,0.4,1.2
					c4.6,4.1,7.5,10,13.9,12.3c11.5,4,22.9,8.3,34.3,12.4c1.5,0.5,3,0.9,4.7,1.5C663.5,695.9,666.3,688.4,669.3,680.2z M571,652.8
					c-6-8.3-13.2-14.8-23.5-16.9c-1.8-0.4-3.6-1.3-5.4-2c-8-2.9-15.9-5.7-24.3-8.8c-3,8.1-5.8,15.8-8.7,23.8
					c13,4.7,25.3,9.3,37.7,13.8c9.2,3.4,15,1.8,21.1-5.9C569,655.5,570,654.1,571,652.8z M599.9,638.9c-0.2-0.4-0.4-0.7-0.7-1.1
					c-3.1,1.9-6.9,3.1-9.2,5.7c-7.5,8.7-14.3,18-21.5,26.9c-4.3,5.4-3.5,12.5,2,17.5c4.4,4,13.3,3.2,17.2-1.6
					c7.5-9.3,14.6-18.9,22.1-28.2c3.3-4.1,2.5-8.4,0.6-12.3C608.6,641.6,605.1,638.6,599.9,638.9z"/>
			</g>
		</g>
	</g>
	<g>
		<polygon class="st5" points="622.6,1145.3 623.8,1157.7 632.6,1166.5 645.5,1167.7 663.2,1151.2 674.9,1165.9 724.3,1183.6 
			736.1,1151.2 676.1,1132.4 678.5,1121.2 670.8,1112.4 659.1,1107.7 646.1,1115.4 639.7,1125.4 625.5,1111.3 578.5,1093.6 
			566.8,1125.4 		"/>
		<g>
			<g>
				<path d="M663.2,1158.2c-2,2.3-4,4.1-5.3,6.2c-9.5,15.4-33.6,8.2-37.4-5c-1-3.7-1-7.7-1.5-11.2c-18.9-3-36.1-12.2-54.4-18.1
					c-2.6-0.8-3.7-2.8-2.5-5.9c3.9-10.1,7.6-20.3,11.2-30.5c1.3-3.6,3-4.4,6.6-3.1c15.2,5.7,30.7,10.9,45.7,16.9
					c3.8,1.5,6.8,5.3,9.8,8.3c3.8,3.7,3.7,3.8,7-0.5c4.2-5.5,9.1-10.2,16.3-10.6c13.4-0.9,26.2,7.9,23.9,24.6
					c5.6,1.6,11.1,3,16.4,4.9c12.4,4.4,24.8,9,37.2,13.5c4.9,1.8,5.2,2.4,3.4,7.4c-3.5,9.6-7.1,19.3-10.5,28.9
					c-1.4,3.9-3.6,4.8-7.4,3.4c-14.6-5.4-29.3-10.4-43.7-16.2c-4-1.6-7.1-5.4-10.5-8.3C666.2,1161.7,665.1,1160.2,663.2,1158.2z
					 M731.4,1154.4c-11.6-4.2-22.7-7.8-33.5-12.4c-6.4-2.7-13.1-3.7-19.1-1.3c-3.9,1.6-6.4,6.5-9.4,10c-0.1,0.2,0.1,0.9,0.4,1.2
					c4.6,4.1,7.5,10,13.9,12.3c11.5,4,22.9,8.3,34.3,12.4c1.5,0.5,3,0.9,4.7,1.5C725.7,1170.1,728.4,1162.5,731.4,1154.4z
					 M633.1,1127c-6-8.3-13.2-14.8-23.5-16.9c-1.8-0.4-3.6-1.3-5.4-2c-8-2.9-15.9-5.7-24.3-8.8c-3,8.1-5.8,15.8-8.7,23.8
					c13,4.7,25.3,9.3,37.7,13.8c9.2,3.4,15,1.8,21.1-5.9C631.1,1129.6,632.1,1128.2,633.1,1127z M662,1113.1
					c-0.2-0.4-0.4-0.7-0.7-1.1c-3.1,1.9-6.9,3.1-9.2,5.7c-7.5,8.7-14.3,18-21.5,26.9c-4.3,5.4-3.5,12.5,2,17.5
					c4.4,4,13.3,3.2,17.2-1.6c7.5-9.3,14.6-18.9,22.1-28.2c3.3-4.1,2.5-8.4,0.6-12.3C670.7,1115.8,667.2,1112.8,662,1113.1z"/>
			</g>
		</g>
	</g>
	<g>
		<polygon class="st5" points="870.6,1489.3 871.8,1501.7 880.6,1510.5 893.5,1511.7 911.2,1495.2 922.9,1509.9 972.3,1527.6 
			984.1,1495.2 924.1,1476.4 926.5,1465.2 918.8,1456.4 907.1,1451.7 894.1,1459.4 887.7,1469.4 873.5,1455.3 826.5,1437.6 
			814.8,1469.4 		"/>
		<g>
			<g>
				<path d="M911.2,1502.2c-2,2.3-4,4.1-5.3,6.2c-9.5,15.4-33.6,8.2-37.4-5c-1-3.7-1-7.7-1.5-11.2c-18.9-3-36.1-12.2-54.4-18.1
					c-2.6-0.8-3.7-2.8-2.5-5.9c3.9-10.1,7.6-20.3,11.2-30.5c1.3-3.6,3-4.4,6.6-3.1c15.2,5.7,30.7,10.9,45.7,16.9
					c3.8,1.5,6.8,5.3,9.8,8.3c3.8,3.7,3.7,3.8,7-0.5c4.2-5.5,9.1-10.2,16.3-10.6c13.4-0.9,26.2,7.9,23.9,24.6
					c5.6,1.6,11.1,3,16.4,4.9c12.4,4.4,24.8,9,37.2,13.5c4.9,1.8,5.2,2.4,3.4,7.4c-3.5,9.6-7.1,19.3-10.5,28.9
					c-1.4,3.9-3.6,4.8-7.4,3.4c-14.6-5.4-29.3-10.4-43.7-16.2c-4-1.6-7.1-5.4-10.5-8.3C914.2,1505.7,913.1,1504.2,911.2,1502.2z
					 M979.4,1498.4c-11.6-4.2-22.7-7.8-33.5-12.4c-6.4-2.7-13.1-3.7-19.1-1.3c-3.9,1.6-6.4,6.5-9.4,10c-0.1,0.2,0.1,0.9,0.4,1.2
					c4.6,4.1,7.5,10,13.9,12.3c11.5,4,22.9,8.3,34.3,12.4c1.5,0.5,3,0.9,4.7,1.5C973.7,1514.1,976.4,1506.5,979.4,1498.4z
					 M881.1,1471c-6-8.3-13.2-14.8-23.5-16.9c-1.8-0.4-3.6-1.3-5.4-2c-8-2.9-15.9-5.7-24.3-8.8c-3,8.1-5.8,15.8-8.7,23.8
					c13,4.7,25.3,9.3,37.7,13.8c9.2,3.4,15,1.8,21.1-5.9C879.1,1473.6,880.1,1472.2,881.1,1471z M910,1457.1
					c-0.2-0.4-0.4-0.7-0.7-1.1c-3.1,1.9-6.9,3.1-9.2,5.7c-7.5,8.7-14.3,18-21.5,26.9c-4.3,5.4-3.5,12.5,2,17.5
					c4.4,4,13.3,3.2,17.2-1.6c7.5-9.3,14.6-18.9,22.1-28.2c3.3-4.1,2.5-8.4,0.6-12.3C918.7,1459.8,915.2,1456.8,910,1457.1z"/>
			</g>
		</g>
	</g>
	<g>
		<polygon class="st5" points="1362.6,1588.3 1363.8,1600.7 1372.6,1609.5 1385.5,1610.7 1403.2,1594.2 1414.9,1608.9 
			1464.3,1626.6 1476.1,1594.2 1416.1,1575.4 1418.5,1564.2 1410.8,1555.4 1399.1,1550.7 1386.1,1558.4 1379.7,1568.4 
			1365.5,1554.3 1318.5,1536.6 1306.8,1568.4 		"/>
		<g>
			<g>
				<path d="M1403.2,1601.2c-2,2.3-4,4.1-5.3,6.2c-9.5,15.4-33.6,8.2-37.4-5c-1-3.7-1-7.7-1.5-11.2c-18.9-3-36.1-12.2-54.4-18.1
					c-2.6-0.8-3.7-2.8-2.5-5.9c3.9-10.1,7.6-20.3,11.2-30.5c1.3-3.6,3-4.4,6.6-3.1c15.2,5.7,30.7,10.9,45.7,16.9
					c3.8,1.5,6.8,5.3,9.8,8.3c3.8,3.7,3.7,3.8,7-0.5c4.2-5.5,9.1-10.2,16.3-10.6c13.4-0.9,26.2,7.9,23.9,24.6
					c5.6,1.6,11.1,3,16.4,4.9c12.4,4.4,24.8,9,37.2,13.5c4.9,1.8,5.2,2.4,3.4,7.4c-3.5,9.6-7.1,19.3-10.5,28.9
					c-1.4,3.9-3.6,4.8-7.4,3.4c-14.6-5.4-29.3-10.4-43.7-16.2c-4-1.6-7.1-5.4-10.5-8.3C1406.2,1604.7,1405.1,1603.2,1403.2,1601.2z
					 M1471.4,1597.4c-11.6-4.2-22.7-7.8-33.5-12.4c-6.4-2.7-13.1-3.7-19.1-1.3c-3.9,1.6-6.4,6.5-9.4,10c-0.1,0.2,0.1,0.9,0.4,1.2
					c4.6,4.1,7.5,10,13.9,12.3c11.5,4,22.9,8.3,34.3,12.4c1.5,0.5,3,0.9,4.7,1.5C1465.7,1613.1,1468.4,1605.5,1471.4,1597.4z
					 M1373.1,1570c-6-8.3-13.2-14.8-23.5-16.9c-1.8-0.4-3.6-1.3-5.4-2c-8-2.9-15.9-5.7-24.3-8.8c-3,8.1-5.8,15.8-8.7,23.8
					c13,4.7,25.3,9.3,37.7,13.8c9.2,3.4,15,1.8,21.1-5.9C1371.1,1572.6,1372.1,1571.2,1373.1,1570z M1402,1556.1
					c-0.2-0.4-0.4-0.7-0.7-1.1c-3.1,1.9-6.9,3.1-9.2,5.7c-7.5,8.7-14.3,18-21.5,26.9c-4.3,5.4-3.5,12.5,2,17.5
					c4.4,4,13.3,3.2,17.2-1.6c7.5-9.3,14.6-18.9,22.1-28.2c3.3-4.1,2.5-8.4,0.6-12.3C1410.7,1558.8,1407.2,1555.8,1402,1556.1z"/>
			</g>
		</g>
	</g>
	<g>
		<polygon class="st5" points="1650.6,1592.3 1651.8,1604.7 1660.6,1613.5 1673.5,1614.7 1691.2,1598.2 1702.9,1612.9 
			1752.3,1630.6 1764.1,1598.2 1704.1,1579.4 1706.5,1568.2 1698.8,1559.4 1687.1,1554.7 1674.1,1562.4 1667.7,1572.4 
			1653.5,1558.3 1606.5,1540.6 1594.8,1572.4 		"/>
		<g>
			<g>
				<path d="M1691.2,1605.2c-2,2.3-4,4.1-5.3,6.2c-9.5,15.4-33.6,8.2-37.4-5c-1-3.7-1-7.7-1.5-11.2c-18.9-3-36.1-12.2-54.4-18.1
					c-2.6-0.8-3.7-2.8-2.5-5.9c3.9-10.1,7.6-20.3,11.2-30.5c1.3-3.6,3-4.4,6.6-3.1c15.2,5.7,30.7,10.9,45.7,16.9
					c3.8,1.5,6.8,5.3,9.8,8.3c3.8,3.7,3.7,3.8,7-0.5c4.2-5.5,9.1-10.2,16.3-10.6c13.4-0.9,26.2,7.9,23.9,24.6
					c5.6,1.6,11.1,3,16.4,4.9c12.4,4.4,24.8,9,37.2,13.5c4.9,1.8,5.2,2.4,3.4,7.4c-3.5,9.6-7.1,19.3-10.5,28.9
					c-1.4,3.9-3.6,4.8-7.4,3.4c-14.6-5.4-29.3-10.4-43.7-16.2c-4-1.6-7.1-5.4-10.5-8.3C1694.2,1608.7,1693.1,1607.2,1691.2,1605.2z
					 M1759.4,1601.4c-11.6-4.2-22.7-7.8-33.5-12.4c-6.4-2.7-13.1-3.7-19.1-1.3c-3.9,1.6-6.4,6.5-9.4,10c-0.1,0.2,0.1,0.9,0.4,1.2
					c4.6,4.1,7.5,10,13.9,12.3c11.5,4,22.9,8.3,34.3,12.4c1.5,0.5,3,0.9,4.7,1.5C1753.7,1617.1,1756.4,1609.5,1759.4,1601.4z
					 M1661.1,1574c-6-8.3-13.2-14.8-23.5-16.9c-1.8-0.4-3.6-1.3-5.4-2c-8-2.9-15.9-5.7-24.3-8.8c-3,8.1-5.8,15.8-8.7,23.8
					c13,4.7,25.3,9.3,37.7,13.8c9.2,3.4,15,1.8,21.1-5.9C1659.1,1576.6,1660.1,1575.2,1661.1,1574z M1690,1560.1
					c-0.2-0.4-0.4-0.7-0.7-1.1c-3.1,1.9-6.9,3.1-9.2,5.7c-7.5,8.7-14.3,18-21.5,26.9c-4.3,5.4-3.5,12.5,2,17.5
					c4.4,4,13.3,3.2,17.2-1.6c7.5-9.3,14.6-18.9,22.1-28.2c3.3-4.1,2.5-8.4,0.6-12.3C1698.7,1562.8,1695.2,1559.8,1690,1560.1z"/>
			</g>
		</g>
	</g>
	<g>
		<polygon class="st5" points="2586.5,1601.3 2587.7,1613.6 2596.5,1622.4 2609.4,1623.6 2627.1,1607.2 2638.8,1621.9 
			2688.2,1639.5 2700,1607.2 2640,1588.3 2642.4,1577.2 2634.7,1568.4 2623,1563.7 2610,1571.3 2603.6,1581.3 2589.5,1567.2 
			2542.4,1549.5 2530.7,1581.3 		"/>
		<g>
			<g>
				<path d="M2627.1,1614.1c-2,2.3-4,4.1-5.3,6.2c-9.5,15.4-33.6,8.2-37.4-5c-1-3.7-1-7.7-1.5-11.2c-18.9-3-36.1-12.2-54.4-18.1
					c-2.6-0.8-3.7-2.8-2.5-5.9c3.9-10.1,7.6-20.3,11.2-30.5c1.3-3.6,3-4.4,6.6-3.1c15.2,5.7,30.7,10.9,45.7,16.9
					c3.8,1.5,6.8,5.3,9.8,8.3c3.8,3.7,3.7,3.8,7-0.5c4.2-5.5,9.1-10.2,16.3-10.6c13.4-0.9,26.2,7.9,23.9,24.6
					c5.6,1.6,11.1,3,16.4,4.9c12.4,4.4,24.8,9,37.2,13.5c4.9,1.8,5.2,2.4,3.4,7.4c-3.5,9.6-7.1,19.3-10.5,28.9
					c-1.4,3.9-3.6,4.8-7.4,3.4c-14.6-5.4-29.3-10.4-43.7-16.2c-4-1.6-7.1-5.4-10.5-8.3C2630.1,1617.6,2629,1616.1,2627.1,1614.1z
					 M2695.3,1610.3c-11.6-4.2-22.7-7.8-33.5-12.4c-6.4-2.7-13.1-3.7-19.1-1.3c-3.9,1.6-6.4,6.5-9.4,10c-0.1,0.2,0.1,0.9,0.4,1.2
					c4.6,4.1,7.5,10,13.9,12.3c11.5,4,22.9,8.3,34.3,12.4c1.5,0.5,3,0.9,4.7,1.5C2689.6,1626,2692.3,1618.5,2695.3,1610.3z
					 M2597,1582.9c-6-8.3-13.2-14.8-23.5-16.9c-1.8-0.4-3.6-1.3-5.4-2c-8-2.9-15.9-5.7-24.3-8.8c-3,8.1-5.8,15.8-8.7,23.8
					c13,4.7,25.3,9.3,37.7,13.8c9.2,3.4,15,1.8,21.1-5.9C2595,1585.6,2596.1,1584.1,2597,1582.9z M2625.9,1569
					c-0.2-0.4-0.4-0.7-0.7-1.1c-3.1,1.9-6.9,3.1-9.2,5.7c-7.5,8.7-14.3,18-21.5,26.9c-4.3,5.4-3.5,12.5,2,17.5
					c4.4,4,13.3,3.2,17.2-1.6c7.5-9.3,14.6-18.9,22.1-28.2c3.3-4.1,2.5-8.4,0.6-12.3C2634.6,1571.7,2631.1,1568.7,2625.9,1569z"/>
			</g>
		</g>
	</g>
	<text transform="matrix(1 0 0 1 1273.9567 1909.2922)" class="st6 st4">Cost ($ per km</text>
	<text transform="matrix(0.583 0 0 0.583 1690.734 1889.3118)" class="st6 st4">2</text>
	<text transform="matrix(1 0 0 1 1710.1881 1909.2922)" class="st6 st4">)</text>
	<text transform="matrix(1 0 0 1 91.292 835.3721)"><tspan x="0" y="0" class="st6 st4">Spatial </tspan><tspan x="-56.6" y="72" class="st6 st4">Resolution </tspan><tspan x="-11.7" y="144" class="st6 st4">(meters)</tspan></text>
	<text transform="matrix(1 0 0 1 463.0308 1667.5632)" class="st7 st8 st3">0</text>
	<text transform="matrix(1 0 0 1 433.981 1649.5632)" class="st1 st2 st3">0</text>
	<text transform="matrix(1 0 0 1 393.938 213.5631)" class="st1 st2 st3">15</text>
	<text transform="matrix(1 0 0 1 393.938 689.8965)" class="st1 st2 st3">10</text>
	<text transform="matrix(1 0 0 1 433.981 1166.2297)" class="st1 st2 st3">5</text>
</g>
</svg>
